Coordinates
version=1
nRows=18
nColumns=19
inDegrees=yes

Units are S.I. units (second, meters, Newtons, ...)
If the header above contains a line with 'inDegrees', this indicates whether rotational values are in degrees (yes) or radians (no).

endheader
time	pelvis_tilt	pelvis_list	pelvis_rotation	pelvis_tx	pelvis_ty	pelvis_tz	hip_flexion_r	hip_adduction_r	hip_rotation_r	knee_angle_r	knee_angle_r_beta	ankle_angle_r	hip_flexion_l	hip_adduction_l	hip_rotation_l	knee_angle_l	knee_angle_l_beta	ankle_angle_l
     13.34666667	     -4.90503657	     10.13000897	      4.86749373	      2.40724969	      1.02552115	      1.02771805	    -14.88835746	    -10.19282193	     -9.28757147	     71.38612871	      1.24592299	    -21.14026187	     30.76130447	     13.84617026	    -18.68599219	     18.37328056	      0.32067424	     -3.63694950
     13.35333333	     -4.90512951	     10.62315978	      5.70120854	      2.40586036	      1.02100155	      1.02731539	    -13.37749640	    -11.00259564	     -9.84776707	     75.57080623	      1.31895939	    -20.42394862	     30.76136792	     14.46569904	    -19.00495484	     20.99690861	      0.36646519	     -2.56417503
     13.36000000	     -4.97474962	     11.08948443	      6.50428310	      2.40429228	      1.01612461	      1.02714593	    -11.68201395	    -11.80647273	    -10.20343917	     79.71292397	      1.39125298	    -19.49220320	     30.84032120	     14.99365487	    -19.22998309	     23.95534900	      0.41809971	     -1.10937639
     13.36666667	     -5.07839154	     11.45800297	      7.24804826	      2.40253068	      1.01103901	      1.02721466	     -9.80979569	    -12.51599666	    -10.31287805	     83.77316916	      1.46211763	    -18.38765375	     30.92413672	     15.38836305	    -19.26907244	     27.09925807	      0.47297128	      0.71285236
     13.37333333	     -5.24929128	     11.74576628	      7.90842498	      2.40060016	      1.00582387	      1.02750117	     -7.71184387	    -13.17879837	    -10.18448920	     87.73848035	      1.53132536	    -17.15546932	     31.00455203	     15.69262671	    -19.12519260	     30.25554297	      0.52805884	      2.82011822
     13.38000000	     -4.69705421	     12.32103261	      8.42884092	      2.39867712	      1.00154862	      1.02794990	     -6.42017174	    -14.12108385	    -10.06393942	     91.40056891	      1.59524087	    -15.91949223	     30.07008106	     16.27769127	    -18.75384834	     33.10145608	      0.57772940	      5.26118216
     13.38666667	     -5.54415591	     12.08430776	      8.88452496	      2.39623460	      0.99588474	      1.02854027	     -3.05892014	    -14.30651711	     -9.18639349	     95.18644010	      1.66131678	    -14.62633401	     30.77997518	     16.08479340	    -18.27731115	     36.14688784	      0.63088221	      7.71467193
     13.39333333	     -5.64698802	     12.08761824	      9.17683034	      2.39376012	      0.99139116	      1.02926944	     -0.48600742	    -14.70846455	     -8.33362483	     98.63914638	      1.72157788	    -13.40815730	     30.42587960	     16.11519882	    -17.61752182	     38.74087474	      0.67615582	     10.36258013
     13.40000000	     -5.00037120	     12.41746994	      9.43072359	      2.39146563	      0.98827201	      1.02985721	      1.18078276	    -15.45089525	     -7.64347254	    101.65819149	      1.77427015	    -12.34081130	     28.93268905	     16.48906414	    -16.76388334	     40.82165653	      0.71247231	     13.05598983
     13.40666667	     -5.61210041	     12.01589156	      9.37443427	      2.38862346	      0.98422452	      1.03078653	      4.85397997	    -15.39726780	     -6.06566224	    104.70589902	      1.82746268	    -11.27303703	     28.89494445	     16.05824861	    -16.12012476	     42.84272345	      0.74774658	     15.53553478
     13.41333333	     -5.53240116	     11.90616171	      9.36543664	      2.38605733	      0.98163002	      1.03143332	      7.63729320	    -15.63319395	     -4.76710826	    107.26343970	      1.87210019	    -10.34810254	     27.73864660	     15.97008585	    -15.23148137	     44.27816315	      0.77279973	     17.93742687
     13.42000000	     -5.00752471	     11.88152882	      9.37131818	      2.38374380	      0.98023388	      1.03184980	      9.87292390	    -15.92210284	     -3.61069859	    109.36678908	      1.90881056	     -9.43463713	     25.79204013	     15.97473599	    -14.16862997	     45.21789415	      0.78920113	     20.20841291
     13.42666667	     -5.08029866	     11.64104046	      8.90878716	      2.38137755	      0.97875993	      1.03261402	     13.16544577	    -15.87292241	     -1.76529442	    111.28299330	      1.94225463	     -8.68015087	     24.41802663	     15.56896777	    -13.66948113	     45.82093181	      0.79972613	     22.08566158
     13.43333333	     -4.94396110	     11.42525057	      8.59018728	      2.37931635	      0.97816812	      1.03293954	     16.09448258	    -15.84049191	     -0.21200380	    112.74032815	      1.96768993	     -7.87297787	     22.51938133	     15.28188682	    -12.92098367	     45.96184458	      0.80218552	     23.75709092
     13.44000000	     -4.62786776	     11.08282859	      8.60143324	      2.37755263	      0.97862573	      1.03266910	     18.61017139	    -15.68358480	      0.85006035	    113.69330137	      1.98432245	     -7.09465485	     20.15400051	     15.03678340	    -11.62016734	     45.69283686	      0.79749045	     24.94120077
     13.44666667	     -4.58222544	     10.86452205	      7.74303589	      2.37643927	      0.97911759	      1.03306111	     21.70656372	    -15.40442599	      2.77836140	    114.39083446	      1.99649670	     -6.19130044	     17.89912428	     14.56004253	    -11.56928180	     44.89026682	      0.78348296	     26.09248781
     13.45333333	     -4.67177164	     10.48790814	      7.33777175	      2.37555865	      0.98011158	      1.03268798	     24.67229656	    -15.04532345	      4.09924654	    114.64974868	      2.00101560	     -5.28258824	     15.59246733	     14.16893232	    -10.91748404	     43.81618659	      0.76473672	     26.72428384
     13.46000000	     -4.90726348	      9.83457943	      7.30389855	      2.37511080	      0.98161643	      1.03170441	     27.50232195	    -14.54163222	      4.77045623	    114.45673007	      1.99764679	     -4.32844549	     13.27781771	     13.62701492	     -9.81075675	     42.50028879	      0.74176997	     26.87664857
